<?xml version="1.0" standalone="no"?>
<!DOCTYPE svg PUBLIC "-//W3C//DTD SVG 1.1//EN" "http://www.w3.org/Graphics/SVG/1.1/DTD/svg11.dtd" >
<svg xmlns="http://www.w3.org/2000/svg">
<metadata>Generated by IcoMoon</metadata>
<defs>
<font id="icomoon" horiz-adv-x="512">
<font-face units-per-em="512" ascent="480" descent="-32" />
<missing-glyph horiz-adv-x="512" />
<glyph unicode="&#x20;" horiz-adv-x="256" d="" />
<glyph unicode="&#xe000;" glyph-name="home" d="M512 184.778l-256 198.713-256-198.714v81.019l256 198.713 256-198.714zM448 192v-192h-128v128h-128v-128h-128v192l192 144z" />
<glyph unicode="&#xe003;" glyph-name="search" d="M496.131 50.702l-121.276 103.147c-12.537 11.283-25.945 16.463-36.776 15.963 28.628 33.534 45.921 77.039 45.921 124.588 0 106.039-85.961 192-192 192s-192-85.961-192-192 85.961-192 192-192c47.549 0 91.054 17.293 124.588 45.922-0.5-10.831 4.68-24.239 15.963-36.776l103.147-121.276c17.661-19.623 46.511-21.277 64.11-3.678s15.946 46.449-3.677 64.11zM192 166.4c-70.692 0-128 57.308-128 128s57.308 128 128 128 128-57.308 128-128-57.307-128-128-128z" />
<glyph unicode="&#xe004;" glyph-name="facebook" d="M287.935-25.6h-95.935v256h-64v88.225l64 0.029-0.104 51.976c0 71.976 19.517 115.77 104.299 115.77h70.588v-88.242h-44.115c-33.016 0-34.603-12.328-34.603-35.342l-0.131-44.162h79.345l-9.352-88.225-69.927-0.029-0.065-256z" />
<glyph unicode="&#xe005;" glyph-name="twitter" d="M512 389.191c-18.838-8.354-39.082-14.001-60.33-16.54 21.686 13 38.343 33.585 46.186 58.115-20.298-12.039-42.778-20.78-66.705-25.49-19.16 20.415-46.461 33.17-76.673 33.17-58.011 0-105.044-47.029-105.044-105.039 0-8.233 0.929-16.25 2.72-23.939-87.3 4.382-164.701 46.2-216.509 109.753-9.042-15.514-14.223-33.558-14.223-52.809 0-36.444 18.544-68.596 46.73-87.433-17.219 0.546-33.416 5.271-47.577 13.139-0.010-0.438-0.010-0.878-0.010-1.321 0-50.894 36.209-93.348 84.261-103-8.813-2.4-18.094-3.686-27.674-3.686-6.769 0-13.349 0.66-19.764 1.886 13.368-41.73 52.16-72.103 98.126-72.948-35.95-28.175-81.243-44.967-130.458-44.967-8.479 0-16.84 0.497-25.058 1.47 46.486-29.805 101.701-47.197 161.021-47.197 193.211 0 298.868 160.062 298.868 298.872 0 4.554-0.103 9.084-0.305 13.59 20.528 14.81 38.336 33.31 52.418 54.374z" />
<glyph unicode="&#xe006;" glyph-name="youtube" d="M416 422.4h-320c-52.8 0-96-43.2-96-96v-192c0-52.8 43.2-96 96-96h320c52.8 0 96 43.2 96 96v192c0 52.8-43.2 96-96 96zM192 102.4v256l160-128-160-128z" />
<glyph unicode="&#xe007;" glyph-name="linkedin" d="M426 486.4h-340c-47.3 0-86-38.7-86-86v-340c0-47.3 38.7-86 86-86h340c47.3 0 86 38.7 86 86v340c0 47.3-38.7 86-86 86zM192 70.4h-64v224h64v-224zM160 326.4c-17.673 0-32 14.327-32 32s14.327 32 32 32 32-14.327 32-32-14.327-32-32-32zM416 70.4h-64v128c0 17.673-14.327 32-32 32s-32-14.327-32-32v-128h-64v224h64v-39.736c13.199 18.132 33.376 39.736 56 39.736 39.765 0 72-35.817 72-80v-144z" />
<glyph unicode="&#xe008;" glyph-name="comment" horiz-adv-x="576" d="M240 480v0c132.548 0 240-86.957 240-194.224s-107.452-194.224-240-194.224c-12.729 0-25.223 0.81-37.417 2.355-51.553-51.347-111.086-60.554-170.583-61.907v12.567c32.126 15.677 58 44.233 58 76.867 0 4.553-0.356 9.024-1.015 13.397-54.279 35.607-88.985 89.994-88.985 150.945 0 107.267 107.452 194.224 240 194.224zM498 44.657c0-27.971 18.157-52.449 46-65.886v-10.771c-51.563 1.159-98.893 9.051-143.571 53.063-10.57-1.325-21.397-2.020-32.429-2.020-47.735 0-91.704 12.879-126.807 34.52 72.337 0.253 140.63 23.427 192.417 65.336 26.104 21.126 46.697 45.913 61.207 73.674 15.383 29.433 23.183 60.791 23.183 93.203 0 5.224-0.225 10.418-0.629 15.584 36.285-29.967 58.629-70.811 58.629-115.838 0-52.244-30.079-98.861-77.12-129.382-0.571-3.748-0.88-7.58-0.88-11.483z" />
<glyph unicode="&#xe009;" glyph-name="lock" d="M416 256h-32v96c0 70.692-57.308 128-128 128s-128-57.308-128-128v-96h-32c-17.6 0-32-14.4-32-32v-224c0-17.6 14.4-32 32-32h320c17.6 0 32 14.4 32 32v224c0 17.6-14.4 32-32 32zM256 64c-17.673 0-32 14.327-32 32s14.327 32 32 32 32-14.327 32-32-14.327-32-32-32zM320 256h-128v96c0 35.29 28.71 64 64 64s64-28.71 64-64v-96z" />
<glyph unicode="&#xe00e;" glyph-name="plus" d="M496 288h-176v176c0 8.836-7.164 16-16 16h-96c-8.836 0-16-7.164-16-16v-176h-176c-8.836 0-16-7.164-16-16v-96c0-8.836 7.164-16 16-16h176v-176c0-8.836 7.164-16 16-16h96c8.836 0 16 7.164 16 16v176h176c8.836 0 16 7.164 16 16v96c0 8.836-7.164 16-16 16z" />
<glyph unicode="&#xe00f;" glyph-name="minus" d="M0 272v-96c0-8.836 7.164-16 16-16h480c8.836 0 16 7.164 16 16v96c0 8.836-7.164 16-16 16h-480c-8.836 0-16-7.164-16-16z" />
<glyph unicode="&#xe012;" glyph-name="cross" d="M507.331 68.67c-0.002 0.002-0.004 0.004-0.006 0.005l-155.322 155.325 155.322 155.325c0.002 0.002 0.004 0.003 0.006 0.005 1.672 1.673 2.881 3.627 3.656 5.708 2.123 5.688 0.912 12.341-3.662 16.915l-73.373 73.373c-4.574 4.573-11.225 5.783-16.914 3.66-2.080-0.775-4.035-1.984-5.709-3.655 0-0.002-0.002-0.003-0.004-0.005l-155.324-155.326-155.324 155.325c-0.002 0.002-0.003 0.003-0.005 0.005-1.673 1.671-3.627 2.88-5.707 3.655-5.69 2.124-12.341 0.913-16.915-3.66l-73.374-73.374c-4.574-4.574-5.784-11.226-3.661-16.914 0.776-2.080 1.985-4.036 3.656-5.708 0.002-0.001 0.003-0.003 0.005-0.005l155.325-155.324-155.325-155.326c-0.001-0.002-0.003-0.003-0.004-0.005-1.671-1.673-2.88-3.627-3.657-5.707-2.124-5.688-0.913-12.341 3.661-16.915l73.374-73.373c4.575-4.574 11.226-5.784 16.915-3.661 2.080 0.776 4.035 1.985 5.708 3.656 0.001 0.002 0.003 0.003 0.005 0.005l155.324 155.325 155.324-155.325c0.002-0.001 0.004-0.003 0.006-0.004 1.674-1.672 3.627-2.881 5.707-3.657 5.689-2.123 12.342-0.913 16.914 3.661l73.373 73.374c4.574 4.574 5.785 11.227 3.662 16.915-0.776 2.080-1.985 4.034-3.657 5.707z" />
<glyph unicode="&#xe014;" glyph-name="triangle-down" d="M255.554 206.234l-31.492 30.663-73.229 73.23c-12.473 12.473-32.695 12.473-45.168 0-6.236-6.237-9.354-14.41-9.354-22.584 0-8.172 3.118-16.347 9.354-22.583l127.75-127.751c12.473-12.472 32.695-12.472 45.167 0l127.752 127.751c12.473 12.472 12.473 32.693 0 45.166s-32.695 12.473-45.168 0l-73.228-73.229-32.384-30.663z" />
<glyph unicode="&#xe600;" glyph-name="cross-20" d="M432.45 102.301c-0.002 0.002-0.002 0.002-0.004 0.002l-121.993 121.997 121.695 121.698c0.002 0 0.002 0.002 0.002 0.002 0.95 0.95 1.637 2.060 2.077 3.243 1.208 3.232 0.52 7.011-2.079 9.61l-41.685 41.685c-2.599 2.599-6.377 3.287-9.61 2.079-1.183-0.441-2.292-1.127-3.243-2.075-0.001-0.001-0.002-0.002-0.003-0.003l-121.696-121.697-121.605 121.606c-0.001 0.001-0.001 0.002-0.003 0.003-0.951 0.95-2.061 1.636-3.243 2.075-3.233 1.207-7.012 0.519-9.611-2.079l-41.686-41.685c-2.599-2.599-3.287-6.378-2.081-9.61 0.44-1.182 1.128-2.293 2.078-3.243 0.001 0 0.001-0.002 0.002-0.002l121.606-121.605-121.906-121.908c0-0.001-0.001-0.002-0.001-0.003-0.951-0.95-1.636-2.061-2.079-3.243-1.207-3.231-0.519-7.011 2.080-9.611l41.686-41.684c2.601-2.6 6.379-3.286 9.609-2.080 1.183 0.44 2.295 1.127 3.245 2.076 0.001 0.002 0.001 0.002 0.002 0.003l121.906 121.906 121.995-121.996c0.002-0.001 0.003-0.002 0.004-0.003 0.95-0.95 2.061-1.637 3.244-2.079 3.231-1.207 7.010-0.517 9.609 2.081l41.685 41.685c2.599 2.599 3.287 6.378 2.082 9.611-0.44 1.183-1.127 2.293-2.079 3.244v0z" />
<glyph unicode="&#xe601;" glyph-name="menu-uob-20" d="M25.6 409.6h460.8v-76.8h-460.8v76.8zM25.6 102.8h460.8v-76.8h-460.8v76.8zM25.6 256h460.8v-76.8h-460.8v76.8z" />
<glyph unicode="&#xe602;" glyph-name="flickr" d="M400 278.4c-35.29 0-64-28.71-64-64s28.71-64 64-64c35.29 0 64 28.71 64 64s-28.71 64-64 64zM400 326.4v0c61.855 0 112-50.144 112-112s-50.145-112-112-112-112 50.145-112 112c0 61.856 50.145 112 112 112zM0 214.4c0 61.856 50.144 112 112 112s112-50.144 112-112c0-61.856-50.144-112-112-112s-112 50.144-112 112z" />
<glyph unicode="&#xe603;" glyph-name="weibo" d="M380.902 235.059c-7.014 2.125-11.853 3.609-8.141 13.005 7.962 20.403 8.781 37.99 0.154 50.56-16.205 23.552-60.493 22.298-111.283 0.614 0 0.026-15.949-7.091-11.879 5.811 7.808 25.549 6.631 46.951-5.53 59.315-27.546 28.058-100.813-1.101-163.686-65.024-47.053-47.898-74.368-98.662-74.368-142.566 0-83.968 105.779-140.135 209.28-140.135 135.68 0 225.92 85.351 225.92 149.043 0 38.502-31.846 60.339-60.467 69.376zM215.731 54.272c-82.585-8.166-153.856 29.337-159.232 83.865-5.35 54.502 57.242 105.344 139.827 113.561 82.611 8.218 153.881-29.312 159.232-83.814s-57.241-105.395-139.827-113.613zM515.635 303.437c-0.051 84.787-68.813 153.523-153.6 153.523-9.907 0-17.92-8.013-17.92-17.92s8.013-17.894 17.92-17.894c65.024 0 117.76-52.736 117.76-117.786 0-9.907 8.013-17.92 17.92-17.92s17.92 8.013 17.92 17.92c0 0 0 0.051 0 0.077zM444.416 306.048c-8.192 39.987-39.731 71.501-79.693 79.693-9.677 1.971-19.175-4.25-21.146-13.952-1.997-9.677 4.25-19.149 13.926-21.146 26.010-5.325 46.49-25.805 51.789-51.789 1.997-9.702 11.469-15.923 21.171-13.952 9.677 1.997 15.949 11.469 13.952 21.146zM173.363 198.323c-33.255-6.682-55.706-34.586-50.125-62.31 5.555-27.725 37.043-44.774 70.323-38.067 33.255 6.681 55.706 34.586 50.125 62.31-5.555 27.699-37.043 44.749-70.323 38.067z" />
<glyph unicode="&#xe604;" glyph-name="instagram" d="M427 486.4h-342c-46.75 0-85-38.25-85-85v-342c0-46.75 38.25-85 85-85h342c46.75 0 85 38.25 85 85v342c0 46.75-38.25 85-85 85zM163.9 262.4h184.2c3.494-10.029 5.4-20.795 5.4-32 0-53.762-43.738-97.5-97.5-97.5s-97.5 43.738-97.5 97.5c0 11.205 1.906 21.971 5.4 32zM448 262.375v-191.975c0-17.6-14.4-32-32-32h-320c-17.6 0-32 14.4-32 32v192h50.054c-2.321-10.301-3.554-21.008-3.554-32 0-80.229 65.271-145.5 145.5-145.5s145.5 65.271 145.5 145.5c0 10.992-1.232 21.699-3.554 32l50.054-0.025zM448 374.4c0-8.8-7.2-16-16-16h-32c-8.8 0-16 7.2-16 16v32c0 8.8 7.2 16 16 16h32c8.8 0 16-7.2 16-16v-32z" />
<glyph unicode="&#xe605;" glyph-name="vimeo" d="M0 332.215l20.797-27.272c0 0 42.885 33.804 57.18 16.901 14.294-16.901 68.868-220.978 87.085-258.623 15.9-33.015 59.759-76.66 107.857-45.491 48.068 31.17 207.92 167.643 236.533 328.808 28.59 161.113-192.36 127.363-215.765-13.005 58.495 35.118 89.718-14.269 59.785-70.186-29.879-55.862-57.18-92.296-71.476-92.296-14.269 0-25.245 37.384-41.594 102.723-16.899 67.551-16.796 189.23-87.058 175.435-66.259-13.006-153.344-116.994-153.344-116.994z" />
<glyph unicode="&#xe606;" glyph-name="warning" d="M256 400.638l-172.417-368.638h344.834l-172.417 368.638zM256 480v0c11.035 0 22.070-7.441 30.442-22.324l218.536-435.556c16.745-29.766 2.5-54.12-31.651-54.12h-434.654c-34.152 0-48.395 24.354-31.652 54.12l218.537 435.556c8.372 14.883 19.407 22.324 30.442 22.324zM224 96c0 17.673 14.327 32 32 32s32-14.327 32-32c0-17.673-14.327-32-32-32s-32 14.327-32 32zM256 288c17.673 0 32-14.327 32-32l-10-96h-44l-10 96c0 17.673 14.327 32 32 32z" />
<glyph unicode="&#xe607;" glyph-name="info" d="M256 480c-141.385 0-256-114.615-256-256s114.615-256 256-256 256 114.615 256 256-114.615 256-256 256zM224 384h64v-64h-64v64zM320 64h-128v32h32v128h-32v32h96v-160h32v-32z" />
<glyph unicode="&#xe608;" glyph-name="minus-20" d="M294.596 172.92l169.706 0.002c0.001-0.001 0.002 0.001 0.002 0.001 1.344 0 2.615 0.298 3.762 0.825 3.14 1.43 5.325 4.589 5.325 8.264l-0.001 58.953c0 3.675-2.184 6.833-5.325 8.265-1.148 0.524-2.417 0.825-3.761 0.826-0.002-0.001-0.003 0-0.004 0l-416.84-0.001c0 0-0.002-0.001-0.003-0.001-1.345 0-2.614-0.3-3.763-0.823-3.137-1.431-5.324-4.591-5.325-8.267l0.001-58.95c0.001-3.678 2.187-6.834 5.325-8.267 1.147-0.526 2.419-0.825 3.761-0.827 0.002 0.001 0.002 0 0.005 0.001l170.001 0.001z" />
<glyph unicode="&#xe609;" glyph-name="arrow-down-right" d="M58 177c0-17.673 14.327-32 32-32h276.744l-75.372-75.373c-6.248-6.248-9.372-14.438-9.372-22.627s3.124-16.379 9.372-22.627c12.497-12.497 32.758-12.497 45.255 0l130 130c12.496 12.496 12.496 32.758 0 45.255l-130 130c-12.497 12.496-32.758 12.496-45.255 0s-12.497-32.758 0-45.255l75.372-75.373-244.743 0.5v186c0 17.673-14.327 32-32 32s-32-14.327-32-32v-221.245z" />
<glyph unicode="&#xe60a;" glyph-name="plus-20" d="M294.594 2.789c0 0.002 0 0.003-0.001 0.004l0.002 170.127 169.706 0.002c0.001-0.001 0.002 0.001 0.002 0.001 1.344 0 2.615 0.298 3.762 0.825 3.14 1.43 5.325 4.589 5.325 8.264l-0.001 58.953c0 3.675-2.184 6.833-5.325 8.265-1.148 0.524-2.417 0.825-3.761 0.826-0.002-0.001-0.003 0-0.004 0l-169.705-0.001 0.002 169.577c0 0.001 0 0.002 0 0.004-0.001 1.344-0.301 2.614-0.825 3.76-1.433 3.138-4.592 5.325-8.267 5.327h-58.952c-3.675 0-6.833-2.185-8.267-5.323-0.524-1.147-0.823-2.418-0.823-3.762 0 0 0-0.002 0-0.003v-169.576l-170.001-0.001c0 0-0.002-0.001-0.003-0.001-1.345 0-2.614-0.3-3.763-0.823-3.137-1.431-5.324-4.591-5.325-8.267l0.001-58.951c0.001-3.678 2.187-6.834 5.325-8.267 1.147-0.526 2.419-0.825 3.761-0.827 0.002 0.001 0.002 0 0.005 0.001l170.001 0.001v-170.128c0-0.002 0-0.004 0-0.005 0-1.345 0.3-2.615 0.824-3.764 1.432-3.137 4.591-5.322 8.266-5.322h58.951c3.675 0 6.835 2.185 8.267 5.324 0.525 1.146 0.823 2.416 0.823 3.762v0 0z" />
<glyph unicode="&#xe60b;" glyph-name="play" d="M96 416l320-192-320-192z" />
<glyph unicode="&#xe60c;" glyph-name="pause" d="M64 416h160v-384h-160zM288 416h160v-384h-160z" />
<glyph unicode="&#xe60d;" glyph-name="arrow-right" d="M310.627 41.373l160 160c12.497 12.496 12.497 32.758 0 45.255l-160 160c-12.497 12.496-32.758 12.496-45.255 0-12.497-12.497-12.497-32.758 0-45.255l105.373-105.373h-306.745c-17.673 0-32-14.327-32-32s14.327-32 32-32h306.745l-105.373-105.373c-6.248-6.248-9.372-14.438-9.372-22.627s3.124-16.379 9.372-22.627c12.497-12.497 32.758-12.497 45.255 0z" />
<glyph unicode="&#xe60e;" glyph-name="location" d="M256 480c-88.366 0-160-71.634-160-160 0-160 160-352 160-352s160 192 160 352c0 88.366-71.635 160-160 160zM256 224c-53.020 0-96 42.98-96 96s42.98 96 96 96 96-42.98 96-96-42.98-96-96-96z" />
<glyph unicode="&#xe60f;" glyph-name="podcast" d="M512 224c0 141.385-114.615 256-256 256s-256-114.615-256-256c0-110.027 69.418-203.832 166.843-240.034l-6.843-15.966h192l-6.843 15.966c97.425 36.202 166.843 130.007 166.843 240.034zM243.395 162.587c-11.404 4.894-19.395 16.218-19.395 29.413 0 17.673 14.327 32 32 32s32-14.327 32-32c0-13.195-7.989-24.522-19.393-29.417l-12.607 29.417-12.605-29.413zM269.134 161.354c29.046 6.059 50.866 31.801 50.866 62.646 0 35.347-28.653 64-64 64s-64-28.653-64-64c0-30.846 21.831-56.561 50.88-62.614l-37.312-87.061c-45.615 19.575-77.568 64.892-77.568 117.675 0 70.692 57.308 134 128 134s128-63.308 128-134c0-52.783-31.953-98.1-77.568-117.675l-37.298 87.029zM344.224-13.854l-36.962 86.243c63.223 21.369 108.738 81.173 108.738 151.611 0 88.365-71.634 160-160 160s-160-71.635-160-160c0-70.438 45.515-130.242 108.738-151.611l-36.962-86.243c-79.797 34.244-135.693 113.517-135.693 205.854 0 123.666 100.251 229.917 223.917 229.917s223.917-106.251 223.917-229.917c0-92.337-55.896-171.61-135.693-205.854z" />
<glyph unicode="&#xe610;" glyph-name="download" d="M368 256l-128-128-128 128h80v192h96v-192zM240 128h-240v-128h480v128h-240zM448 64h-64v32h64v-32z" />
<glyph unicode="&#xe611;" glyph-name="checkmark" d="M432 416l-240-240-112 112-80-80 192-192 320 320z" />
<glyph unicode="&#xe612;" glyph-name="connection" horiz-adv-x="640" d="M320 192c52.935 0 100.935-21.533 135.701-56.299l-45.234-45.234c-23.177 23.178-55.178 37.533-90.467 37.533s-67.289-14.355-90.467-37.533l-45.234 45.234c34.766 34.766 82.766 56.299 135.701 56.299zM93.726 226.274c60.44 60.44 140.799 93.726 226.274 93.726s165.834-33.286 226.275-93.726l-45.255-45.254c-48.353 48.352-112.64 74.98-181.020 74.98-68.381 0-132.667-26.628-181.019-74.981l-45.255 45.255zM494.392 412.781c53.351-22.566 101.258-54.864 142.391-95.998v0l-45.254-45.254c-72.528 72.528-168.96 112.471-271.529 112.471-102.57 0-199-39.943-271.529-112.471l-45.255 45.255c41.134 41.133 89.041 73.431 142.392 95.997 55.252 23.369 113.926 35.219 174.392 35.219s119.139-11.85 174.392-35.219zM288 32c0 17.673 14.327 32 32 32s32-14.327 32-32c0-17.673-14.327-32-32-32s-32 14.327-32 32z" />
<glyph unicode="&#xe900;" glyph-name="expand" d="M512 480v-208l-80 80-96-96-48 48 96 96-80 80zM224 144l-96-96 80-80h-208v208l80-80 96 96z" />
<glyph unicode="&#xe902;" glyph-name="phone" d="M352 160c-32-32-32-64-64-64s-64 32-96 64-64 64-64 96 32 32 64 64-64 128-96 128-96-96-96-96c0-64 65.75-193.75 128-256s192-128 256-128c0 0 96 64 96 96s-96 128-128 96z" />
<glyph unicode="&#xe903;" glyph-name="envelope" d="M464 416h-416c-26.4 0-48-21.6-48-48v-320c0-26.4 21.6-48 48-48h416c26.4 0 48 21.6 48 48v320c0 26.4-21.6 48-48 48zM199.37 204.814l-135.37-105.446v250.821l135.37-145.375zM88.19 352h335.62l-167.81-126-167.81 126zM204.644 199.151l51.356-55.151 51.355 55.151 105.277-135.151h-313.264l105.276 135.151zM312.63 204.814l135.37 145.375v-250.821l-135.37 105.446z" />
<glyph unicode="&#xe904;" glyph-name="arrow-left" d="M201.373 406.627l-160-160c-12.497-12.496-12.497-32.758 0-45.254l160-160c12.497-12.496 32.758-12.496 45.255 0s12.498 32.758 0 45.254l-105.374 105.373h306.746c17.673 0 32 14.326 32 32s-14.327 32-32 32h-306.746l105.373 105.373c6.248 6.248 9.373 14.438 9.373 22.627s-3.124 16.379-9.372 22.627c-12.498 12.497-32.758 12.497-45.255 0z" />
<glyph unicode="&#xe905;" glyph-name="directions_walk" d="M209 279.333l-60-301h45l39 171 44-43v-128h43v160l-45 43 13 64q46-53 117-53v42q-62 0-91 52l-22 34q-15 21-36 21-3 0-8.5-1t-8.5-1l-111-47v-100h43v72l38 15zM288 352.333q-17 0-30 12.5t-13 29.5 13 30 30 13 30-13 13-30-13-29.5-30-12.5z" />
<glyph unicode="&#xe906;" glyph-name="podium" d="M352 256v128h-192v-96h-160v-256h512v224h-160zM128 128h-64v-32h64v-32h-96v96h64v32h-64v32h96v-96zM288 160h-32v128h-32v32h64v-160zM480 64h-96v32h64v32h-64v32h64v32h-64v32h96v-160z" />
<glyph unicode="&#xe907;" glyph-name="bed" d="M480 320c-17.674 0-32-14.327-32-32v-96h-336c-26.51 0-48 21.49-48 48v144c0 17.673-14.327 32-32 32s-32-14.327-32-32v-320h64v64h384v-64h64v224c0 17.673-14.327 32-32 32zM176 264c0-30.928-25.072-56-56-56s-56 25.072-56 56c0 30.928 25.072 56 56 56s56-25.072 56-56zM400 288h-160c-26.51 0-48-21.49-48-48v-32h256v32c0 26.51-21.49 48-48 48z" />
<glyph unicode="&#xe908;" glyph-name="spoon-knife" d="M112 480c-53.020 0-96-50.144-96-112 0-52.962 31.511-97.333 73.853-108.999l-15.894-259.062c-1.077-17.566 12.441-31.939 30.041-31.939h16c17.6 0 31.118 14.373 30.041 31.939l-15.894 259.062c42.342 11.666 73.853 56.037 73.853 108.999 0 61.856-42.98 112-96 112zM434.667 480l-26.667-160h-20l-13.333 160h-13.334l-13.333-160h-20l-26.667 160h-13.333v-208c0-8.836 7.163-16 16-16h41.669l-15.71-256.061c-1.077-17.566 12.441-31.939 30.041-31.939h16c17.6 0 31.118 14.373 30.041 31.939l-15.71 256.061h41.669c8.837 0 16 7.164 16 16v208h-13.333z" />
<glyph unicode="&#xe909;" glyph-name="equalizer" d="M448 256h8c13.2 0 24 10.8 24 24v80c0 13.2-10.8 24-24 24h-8v96h-64v-96h-8c-13.2 0-24-10.8-24-24v-80c0-13.2 10.8-24 24-24h8v-288h64v288zM384 352h64v-64h-64v64zM296 64c13.2 0 24 10.8 24 24v80c0 13.2-10.8 24-24 24h-8v288h-64v-288h-8c-13.2 0-24-10.8-24-24v-80c0-13.2 10.8-24 24-24h8v-96h64v96h8zM224 160h64v-64h-64v64zM136 256c13.2 0 24 10.8 24 24v80c0 13.2-10.8 24-24 24h-8v96h-64v-96h-8c-13.2 0-24-10.8-24-24v-80c0-13.2 10.8-24 24-24h8v-288h64v288h8zM64 352h64v-64h-64v64z" />
<glyph unicode="&#xe90a;" glyph-name="cog" d="M512 175.953v96.094l-73.387 12.231c-2.979 9.066-6.611 17.834-10.847 26.25l43.227 60.517-67.948 67.949-60.413-43.152c-8.455 4.277-17.269 7.944-26.384 10.951l-12.201 73.207h-96.094l-12.201-73.208c-9.115-3.007-17.929-6.674-26.383-10.951l-60.414 43.152-67.949-67.949 43.227-60.518c-4.235-8.415-7.867-17.183-10.846-26.249l-73.387-12.23v-96.094l73.559-12.26c2.98-8.984 6.605-17.674 10.821-26.015l-43.374-60.724 67.949-67.948 60.827 43.447c8.301-4.175 16.945-7.764 25.882-10.717l12.289-73.736h96.094l12.289 73.737c8.937 2.953 17.581 6.542 25.883 10.716l60.826-43.446 67.948 67.948-43.372 60.723c4.216 8.341 7.839 17.031 10.82 26.016l73.559 12.259zM256 160c-35.346 0-64 28.653-64 64s28.654 64 64 64c35.347 0 64-28.654 64-64s-28.653-64-64-64z" />
<glyph unicode="&#xe90b;" glyph-name="star" d="M512 281.475l-176.89 25.704-79.11 160.291-79.108-160.291-176.892-25.704 128-124.769-30.216-176.176 158.216 83.179 158.216-83.179-30.217 176.176 128.001 124.769z" />
</font>
</defs>
</svg>
